<svg width="200" height="25" viewBox="0 0 200 25" fill="none" xmlns="http://www.w3.org/2000/svg">
<path d="M3.47374 12.3084C3.47374 13.6577 3.77462 14.843 4.37637 15.8642C4.99635 16.8853 5.79869 17.6785 6.78337 18.2438C7.78629 18.7909 8.87126 19.0644 10.0383 19.0644C10.95 19.0644 11.7706 18.9459 12.5 18.7088C13.2294 18.4718 13.8859 18.1526 14.4694 17.7515C15.0711 17.3321 15.5908 16.8671 16.0284 16.3565V20.1858C15.2261 20.8423 14.36 21.3437 13.43 21.6902C12.5 22.0367 11.333 22.2099 9.92888 22.2099C8.5248 22.2099 7.21189 21.9728 5.99015 21.4987C4.78665 21.0246 3.73815 20.3408 2.84464 19.4473C1.95113 18.5538 1.24909 17.5053 0.738512 16.3018C0.246171 15.0801 0 13.7489 0 12.3084C0 10.8678 0.246171 9.54578 0.738512 8.34228C1.24909 7.12054 1.95113 6.06292 2.84464 5.16941C3.73815 4.27591 4.78665 3.5921 5.99015 3.11799C7.21189 2.64388 8.5248 2.40683 9.92888 2.40683C11.333 2.40683 12.5 2.58006 13.43 2.92653C14.36 3.27299 15.2261 3.77445 16.0284 4.4309V8.26022C15.5908 7.74965 15.0711 7.29378 14.4694 6.89261C13.8859 6.47321 13.2294 6.14498 12.5 5.90793C11.7706 5.67087 10.95 5.55235 10.0383 5.55235C8.87126 5.55235 7.78629 5.83499 6.78337 6.40027C5.79869 6.94731 4.99635 7.73141 4.37637 8.75257C3.77462 9.75548 3.47374 10.9408 3.47374 12.3084Z" fill="currentColor"/>
<path d="M24.0811 0.546875V21.8817H21.1271V0.546875H24.0811ZM29.2234 14.223C29.2234 13.293 29.0319 12.591 28.649 12.1169C28.2843 11.6428 27.6916 11.4057 26.8711 11.4057C26.324 11.4057 25.8408 11.5243 25.4214 11.7613C25.002 11.9984 24.6738 12.3266 24.4367 12.746C24.1997 13.1654 24.0811 13.6577 24.0811 14.223H23.37C23.37 13.2201 23.5523 12.3266 23.917 11.5425C24.2817 10.7584 24.7923 10.1293 25.4487 9.65519C26.1234 9.18108 26.9349 8.94403 27.8831 8.94403C28.8131 8.94403 29.5972 9.12638 30.2354 9.49108C30.8919 9.85577 31.3842 10.4028 31.7124 11.1322C32.0407 11.8434 32.2048 12.7369 32.2048 13.8127V21.8817H29.2234V14.223Z" fill="currentColor"/>
<path d="M39.1794 17.9703C39.1794 18.3897 39.2797 18.7544 39.4803 19.0644C39.6808 19.3561 39.9544 19.575 40.3008 19.7208C40.6655 19.8667 41.0758 19.9397 41.5317 19.9397C42.1152 19.9397 42.644 19.8211 43.1181 19.5841C43.6105 19.347 44.0025 19.0006 44.2943 18.5447C44.6043 18.0706 44.7593 17.5235 44.7593 16.9036L45.1969 18.5447C45.1969 19.347 44.9598 20.0217 44.4857 20.5688C44.0299 21.0976 43.4463 21.4987 42.7352 21.7723C42.0423 22.0275 41.3311 22.1552 40.6017 22.1552C39.8176 22.1552 39.0882 22.0002 38.4135 21.6902C37.7388 21.3802 37.2009 20.9243 36.7997 20.3226C36.3986 19.7208 36.198 18.9914 36.198 18.1344C36.198 16.9127 36.6265 15.9462 37.4835 15.2351C38.3406 14.5057 39.5532 14.141 41.1214 14.141C41.9602 14.141 42.6805 14.2321 43.2822 14.4145C43.9022 14.5968 44.4128 14.8157 44.814 15.0709C45.2151 15.308 45.4978 15.5268 45.6619 15.7274V17.2318C45.0966 16.8306 44.4949 16.5389 43.8566 16.3565C43.2184 16.1742 42.5437 16.083 41.8326 16.083C41.2126 16.083 40.7111 16.165 40.3282 16.3292C39.9453 16.475 39.6535 16.6847 39.4529 16.9583C39.2706 17.2318 39.1794 17.5691 39.1794 17.9703ZM38.2494 12.5819L37.0459 10.5031C37.6112 10.1567 38.3406 9.8193 39.2341 9.49108C40.1458 9.16285 41.1852 8.99874 42.3523 8.99874C43.3916 8.99874 44.3034 9.15373 45.0875 9.46373C45.8898 9.77372 46.5189 10.2205 46.9748 10.804C47.4307 11.3693 47.6586 12.0713 47.6586 12.9101V21.8817H44.7593V13.4845C44.7593 13.0833 44.6863 12.7551 44.5404 12.4998C44.4128 12.2445 44.2304 12.0348 43.9934 11.8707C43.7563 11.7066 43.4737 11.5881 43.1455 11.5151C42.8172 11.4422 42.4617 11.4057 42.0787 11.4057C41.4952 11.4057 40.9391 11.4787 40.4102 11.6246C39.8997 11.7522 39.4529 11.9163 39.07 12.1169C38.7053 12.2992 38.4318 12.4542 38.2494 12.5819Z" fill="currentColor"/>
<path d="M55.3967 9.29961V21.8817H52.47V9.29961H55.3967ZM59.144 12.4451C58.8705 12.2263 58.6152 12.0622 58.3781 11.9528C58.1411 11.8434 57.8402 11.7887 57.4755 11.7887C56.9832 11.7887 56.582 11.9163 56.272 12.1716C55.962 12.4269 55.7341 12.7825 55.5882 13.2383C55.4606 13.676 55.3967 14.1957 55.3967 14.7974L54.4121 14.223C54.4121 13.2201 54.5944 12.3357 54.9591 11.5699C55.342 10.7858 55.8253 10.1658 56.4088 9.7099C57.0105 9.25402 57.6305 9.02609 58.2687 9.02609C58.7246 9.02609 59.1531 9.09903 59.5543 9.24491C59.9555 9.37255 60.2928 9.6096 60.5663 9.95607L59.144 12.4451Z" fill="currentColor"/>
<path d="M62.2107 9.29961H69.3496V11.8981H62.2107V9.29961ZM64.3168 4.92324H67.2435V21.8817H64.3168V4.92324Z" fill="currentColor"/>
<path d="M76.5565 10.2296L75.2436 21.8817H71.9066L74.5324 1.77773L82.3826 14.7701L90.26 1.77773L92.8858 21.8817H89.5489L88.2086 10.2296L82.3826 20.1038L76.5565 10.2296Z" fill="currentColor"/>
<path d="M99.0072 17.9703C99.0072 18.3897 99.1075 18.7544 99.3081 19.0644C99.5087 19.3561 99.7822 19.575 100.129 19.7208C100.493 19.8667 100.904 19.9397 101.359 19.9397C101.943 19.9397 102.472 19.8211 102.946 19.5841C103.438 19.347 103.83 19.0006 104.122 18.5447C104.432 18.0706 104.587 17.5235 104.587 16.9036L105.025 18.5447C105.025 19.347 104.788 20.0217 104.314 20.5688C103.858 21.0976 103.274 21.4987 102.563 21.7723C101.87 22.0275 101.159 22.1552 100.43 22.1552C99.6454 22.1552 98.916 22.0002 98.2413 21.6902C97.5666 21.3802 97.0287 20.9243 96.6275 20.3226C96.2264 19.7208 96.0258 18.9914 96.0258 18.1344C96.0258 16.9127 96.4543 15.9462 97.3113 15.2351C98.1684 14.5057 99.381 14.141 100.949 14.141C101.788 14.141 102.508 14.2321 103.11 14.4145C103.73 14.5968 104.241 14.8157 104.642 15.0709C105.043 15.308 105.326 15.5268 105.49 15.7274V17.2318C104.924 16.8306 104.323 16.5389 103.684 16.3565C103.046 16.1742 102.372 16.083 101.66 16.083C101.04 16.083 100.539 16.165 100.156 16.3292C99.7731 16.475 99.4813 16.6847 99.2807 16.9583C99.0984 17.2318 99.0072 17.5691 99.0072 17.9703ZM98.0772 12.5819L96.8737 10.5031C97.439 10.1567 98.1684 9.8193 99.0619 9.49108C99.9736 9.16285 101.013 8.99874 102.18 8.99874C103.219 8.99874 104.131 9.15373 104.915 9.46373C105.718 9.77372 106.347 10.2205 106.803 10.804C107.258 11.3693 107.486 12.0713 107.486 12.9101V21.8817H104.587V13.4845C104.587 13.0833 104.514 12.7551 104.368 12.4998C104.241 12.2445 104.058 12.0348 103.821 11.8707C103.584 11.7066 103.302 11.5881 102.973 11.5151C102.645 11.4422 102.289 11.4057 101.907 11.4057C101.323 11.4057 100.767 11.4787 100.238 11.6246C99.7275 11.7522 99.2807 11.9163 98.8978 12.1169C98.5331 12.2992 98.2596 12.4542 98.0772 12.5819Z" fill="currentColor"/>
<path d="M112.872 17.7515C113.273 18.1891 113.675 18.572 114.076 18.9003C114.495 19.2103 114.915 19.4473 115.334 19.6114C115.753 19.7573 116.173 19.8302 116.592 19.8302C117.121 19.8302 117.531 19.7117 117.823 19.4747C118.133 19.2376 118.288 18.9094 118.288 18.49C118.288 18.1253 118.169 17.8153 117.932 17.56C117.695 17.2865 117.367 17.0585 116.948 16.8762C116.528 16.6756 116.036 16.475 115.471 16.2744C114.905 16.0556 114.34 15.8003 113.775 15.5086C113.228 15.1986 112.772 14.7974 112.407 14.3051C112.061 13.8127 111.888 13.1928 111.888 12.4451C111.888 11.6793 112.079 11.041 112.462 10.5305C112.863 10.0199 113.392 9.64607 114.048 9.40902C114.723 9.15373 115.443 9.02609 116.209 9.02609C116.902 9.02609 117.549 9.12638 118.151 9.32696C118.771 9.52755 119.327 9.79195 119.82 10.1202C120.312 10.4484 120.731 10.8222 121.078 11.2416L119.437 12.9922C119.017 12.4998 118.516 12.0987 117.932 11.7887C117.349 11.4787 116.747 11.3237 116.127 11.3237C115.708 11.3237 115.361 11.4149 115.088 11.5972C114.814 11.7796 114.677 12.044 114.677 12.3904C114.677 12.6822 114.796 12.9466 115.033 13.1836C115.288 13.4025 115.617 13.603 116.018 13.7854C116.437 13.9677 116.902 14.1592 117.413 14.3598C118.106 14.6333 118.744 14.9342 119.327 15.2624C119.911 15.5906 120.376 15.9918 120.722 16.4659C121.087 16.94 121.269 17.56 121.269 18.3259C121.269 19.5111 120.859 20.4685 120.039 21.1979C119.236 21.909 118.142 22.2646 116.756 22.2646C115.899 22.2646 115.106 22.137 114.377 21.8817C113.665 21.6081 113.036 21.2617 112.489 20.8423C111.961 20.4046 111.514 19.9488 111.149 19.4747L112.872 17.7515Z" fill="currentColor"/>
<path d="M123.508 9.29961H130.647V11.8981H123.508V9.29961ZM125.614 4.92324H128.54V21.8817H125.614V4.92324Z" fill="currentColor"/>
<path d="M139.522 22.1552C138.245 22.1552 137.115 21.8817 136.13 21.3346C135.164 20.7876 134.416 20.0217 133.887 19.037C133.359 18.0523 133.094 16.9036 133.094 15.5906C133.094 14.2595 133.359 13.1016 133.887 12.1169C134.434 11.1322 135.2 10.3755 136.185 9.84666C137.17 9.29961 138.328 9.02609 139.659 9.02609C140.99 9.02609 142.12 9.28138 143.05 9.79195C143.98 10.3025 144.692 11.041 145.184 12.0075C145.694 12.9557 145.95 14.1045 145.95 15.4539C145.95 15.5998 145.941 15.7548 145.922 15.9189C145.922 16.083 145.913 16.2015 145.895 16.2744H134.845V14.2504H143.379L142.476 15.5086C142.531 15.3992 142.585 15.2533 142.64 15.0709C142.713 14.8704 142.75 14.7062 142.75 14.5786C142.75 13.9039 142.613 13.3204 142.339 12.8281C142.084 12.3357 141.719 11.9528 141.245 11.6793C140.789 11.4057 140.251 11.269 139.631 11.269C138.884 11.269 138.245 11.4331 137.717 11.7613C137.188 12.0895 136.787 12.5637 136.513 13.1836C136.24 13.8036 136.094 14.5695 136.076 15.4812C136.076 16.393 136.212 17.168 136.486 17.8062C136.759 18.4262 137.161 18.9003 137.689 19.2285C138.236 19.5567 138.893 19.7208 139.659 19.7208C140.461 19.7208 141.163 19.5567 141.765 19.2285C142.367 18.9003 142.868 18.3988 143.269 17.7241L145.813 18.7635C145.157 19.8941 144.309 20.742 143.269 21.3073C142.23 21.8726 140.981 22.1552 139.522 22.1552Z" fill="currentColor"/>
<path d="M153.064 9.29961V21.8817H150.137V9.29961H153.064ZM156.811 12.4451C156.537 12.2263 156.282 12.0622 156.045 11.9528C155.808 11.8434 155.507 11.7887 155.142 11.7887C154.65 11.7887 154.249 11.9163 153.939 12.1716C153.629 12.4269 153.401 12.7825 153.255 13.2383C153.127 13.676 153.064 14.1957 153.064 14.7974L152.079 14.223C152.079 13.2201 152.261 12.3357 152.626 11.5699C153.009 10.7858 153.492 10.1658 154.076 9.7099C154.677 9.25402 155.297 9.02609 155.936 9.02609C156.392 9.02609 156.82 9.09903 157.221 9.24491C157.622 9.37255 157.96 9.6096 158.233 9.95607L156.811 12.4451Z" fill="currentColor"/>
<path fill-rule="evenodd" clip-rule="evenodd" d="M199.748 7.8327C199.916 8.56692 200 9.31758 200 10.0706H189.929V0C192.211 -9.02953e-06 194.426 0.774994 196.21 2.19804C197.993 3.62109 199.241 5.6078 199.748 7.8327ZM197.435 7.8327C197.064 6.5862 196.388 5.45187 195.468 4.53213C194.548 3.61239 193.414 2.93621 192.167 2.56465V7.8327H197.435Z" fill="#3C7EFF"/>
<path fill-rule="evenodd" clip-rule="evenodd" d="M175.383 14.5465C175.383 13.0338 175.724 11.5406 176.38 10.1777C177.036 8.81478 177.991 7.61721 179.173 6.6739C180.356 5.73059 181.736 5.06578 183.21 4.72884C184.685 4.3919 186.217 4.39149 187.691 4.72764V12.3086H195.272C195.587 13.6906 195.607 15.1236 195.33 16.5138C195.053 17.9039 194.486 19.22 193.665 20.3759C192.845 21.5317 191.79 22.5013 190.568 23.2213C189.347 23.9412 187.988 24.3953 186.58 24.5538C185.171 24.7123 183.745 24.5716 182.394 24.141C181.044 23.7104 179.799 22.9995 178.743 22.0549C177.686 21.1103 176.84 19.9532 176.261 18.6594C175.682 17.3655 175.383 15.964 175.383 14.5465ZM193.066 14.5465H185.454V6.9331C183.948 6.93288 182.476 7.37921 181.223 8.21564C179.971 9.05208 178.995 10.2411 178.419 11.6322C177.842 13.0233 177.692 14.5542 177.985 16.0311C178.279 17.508 179.004 18.8647 180.069 19.9296C181.133 20.9944 182.49 21.7197 183.967 22.0135C185.444 22.3074 186.974 22.1567 188.366 21.5805C189.757 21.0042 190.946 20.0284 191.783 18.7764C192.619 17.5243 193.066 16.0523 193.066 14.5465Z" fill="#3C7EFF"/>
</svg>
